<?xml version="1.0" standalone="no"?>
<!DOCTYPE svg PUBLIC "-//W3C//DTD SVG 20010904//EN"
 "http://www.w3.org/TR/2001/REC-SVG-20010904/DTD/svg10.dtd">
<svg version="1.0" xmlns="http://www.w3.org/2000/svg"
 width="852.000000pt" height="852.000000pt" viewBox="0 0 852.000000 852.000000"
 preserveAspectRatio="xMidYMid meet">
<metadata>
Created by potrace 1.14, written by Peter Selinger 2001-2017
</metadata>
<g transform="translate(0.000000,852.000000) scale(0.100000,-0.100000)"
fill="#000000" stroke="none">
<path d="M5399 8516 c-2 -3 -20 -8 -39 -11 -92 -16 -659 -199 -900 -290 -133
-50 -260 -111 -325 -155 -99 -68 -221 -218 -278 -342 l-22 -49 -105 4 c-134 5
-170 0 -206 -28 -51 -41 -33 -105 59 -218 38 -46 39 -49 21 -62 -11 -8 -23
-15 -27 -15 -7 0 -112 -75 -127 -90 -3 -3 -32 -27 -65 -55 -33 -27 -76 -64
-95 -82 -19 -17 -53 -48 -75 -69 -224 -204 -570 -542 -666 -649 -47 -52 -169
-211 -169 -220 0 -3 -11 -21 -24 -38 -47 -64 -125 -248 -132 -315 -2 -18 -6
-43 -10 -55 -11 -36 -5 -199 10 -273 22 -103 52 -186 108 -293 40 -77 125
-210 148 -231 3 -3 20 -25 39 -50 34 -44 64 -77 149 -167 23 -25 42 -50 42
-56 0 -7 -15 -29 -33 -49 -64 -73 -98 -115 -162 -198 -36 -47 -72 -93 -80
-103 -8 -9 -15 -20 -15 -24 0 -3 -16 -25 -35 -49 -19 -23 -35 -47 -35 -53 0
-6 -4 -11 -10 -11 -5 0 -10 -4 -10 -9 0 -5 -24 -45 -54 -88 -127 -187 -352
-606 -371 -693 -2 -8 -9 -28 -15 -45 -6 -16 -14 -37 -16 -45 -33 -123 -93
-364 -98 -390 -3 -19 -8 -45 -10 -57 -5 -23 -18 -105 -22 -138 -1 -11 -3 -20
-4 -20 -1 0 -4 -11 -6 -25 -1 -14 -5 -36 -8 -50 -2 -14 -5 -30 -5 -36 -1 -10
-25 -16 -111 -29 -8 -2 -31 -5 -50 -9 -19 -3 -48 -9 -65 -12 -122 -22 -172
-72 -162 -162 6 -51 33 -141 48 -156 5 -6 9 -17 9 -25 1 -26 82 -176 119 -221
35 -41 145 -105 163 -94 5 3 24 7 41 9 18 1 43 5 57 9 23 5 27 0 53 -67 42
-106 122 -265 162 -319 19 -26 61 -68 92 -93 59 -47 199 -121 244 -129 13 -2
24 -5 24 -6 0 -4 116 -23 138 -22 11 0 24 -15 37 -43 11 -24 20 -47 20 -50 0
-10 132 -279 140 -285 3 -3 14 -26 24 -52 9 -25 24 -52 32 -58 7 -7 14 -16 14
-21 0 -10 69 -111 102 -151 13 -15 39 -46 58 -69 19 -23 42 -50 52 -61 9 -10
31 -37 49 -60 67 -82 314 -318 333 -318 4 0 16 -9 28 -20 35 -32 160 -90 204
-94 25 -2 55 3 73 12 44 21 62 57 77 152 3 19 7 46 10 60 2 14 7 40 10 59 3
18 7 43 10 55 16 86 161 310 241 376 24 19 49 40 56 47 27 23 114 63 167 76
105 27 196 14 317 -45 64 -30 101 -57 160 -117 81 -81 123 -128 123 -139 0 -4
10 -18 23 -32 35 -38 76 -131 142 -325 47 -136 86 -182 165 -192 72 -10 153
40 294 182 66 67 128 130 136 141 8 10 39 49 68 85 28 37 52 71 52 77 0 6 4
12 8 14 14 5 91 123 103 157 6 17 15 31 20 31 5 0 9 9 9 19 0 11 4 22 10 26
11 7 72 125 65 125 -3 0 3 17 14 38 10 20 49 114 86 207 37 94 68 171 69 172
1 1 31 -5 66 -13 96 -22 188 -17 250 15 89 46 173 127 234 225 10 17 19 32 21
34 1 1 15 -2 31 -8 99 -38 184 -2 259 110 17 25 33 50 38 55 26 34 55 85 49
85 -4 0 -2 4 5 8 26 16 89 157 92 203 3 59 -29 129 -76 166 -20 15 -42 34 -49
41 -7 6 -17 12 -22 12 -6 0 -12 3 -14 8 -1 4 -33 22 -70 41 -58 29 -66 36 -59
55 12 36 3 367 -13 486 -2 14 -7 49 -11 79 -3 30 -9 63 -11 75 -3 12 -7 32
-10 46 -2 14 -7 36 -10 50 -3 14 -8 36 -10 50 -11 62 -89 302 -130 403 -26 62
-73 164 -106 227 -60 115 -203 342 -219 348 -5 2 -9 8 -9 13 0 5 -6 17 -14 26
-97 120 -149 178 -261 289 l-131 130 75 73 c75 71 161 178 161 200 0 6 3 11 8
11 12 0 88 156 117 239 28 79 61 210 69 279 4 23 9 61 12 84 6 47 16 202 14
233 -1 11 -1 25 -1 30 9 234 -13 444 -64 620 -24 81 -63 186 -85 225 -5 8 -21
39 -36 68 -15 28 -31 52 -34 52 -15 0 -18 40 -4 41 76 7 140 55 150 112 25
142 -56 312 -200 421 -52 39 -216 126 -238 126 -7 0 -23 17 -35 38 -32 56
-128 246 -131 262 -22 97 -18 131 17 149 32 17 138 19 221 4 81 -15 259 -59
266 -65 2 -3 15 -51 30 -109 34 -140 73 -258 96 -291 10 -14 18 -30 18 -34 0
-15 99 -102 132 -117 74 -33 99 -39 160 -39 80 -1 161 16 247 52 64 26 150 69
161 80 3 3 26 21 52 40 25 19 61 59 79 89 29 47 33 63 33 120 0 95 -30 146
-167 284 -205 207 -300 253 -552 269 -41 3 -128 -16 -169 -36 l-49 -24 -51 37
c-202 149 -623 431 -664 445 -38 13 -134 21 -143 12z"/>
</g>
</svg>
