<?xml version="1.0" encoding="utf-8"?>
<!-- Generator: Adobe Illustrator 24.0.0, SVG Export Plug-In . SVG Version: 6.00 Build 0)  -->
<svg version="1.1" id="Warstwa_1" xmlns="http://www.w3.org/2000/svg" xmlns:xlink="http://www.w3.org/1999/xlink" x="0px" y="0px"
	 viewBox="0 0 1367.5 164" style="enable-background:new 0 0 1367.5 164;" xml:space="preserve">
<style type="text/css">
	.st0{fill:#F5FDFF;stroke:#A0A0A0;stroke-miterlimit:10;}
</style>
<title>z1</title>
<path class="st0" d="M0.8,94.2c0,0,47.2-57.6,74-75.5c15.6-10.4,72.2-18.9,83-9c35,32,25,32.1,59.2,52.5c65,38.7,133.1-44.6,211.2-7
	c35.6,17.1,65.7,25.5,103.5,31.5c45.6,7.2,83-33,145-28c16.2,1.3,123.4,40.5,159,39c27.9-1.1,82,11,118,8c18.4-1.5,137-50,200-54
	c32.2-2,194,24,213,61v52H0.3C0.3,164.7,1.8,94.2,0.8,94.2z"/>
</svg>
