<?xml version="1.0" encoding="utf-8"?>
<!-- Generator: Adobe Illustrator 24.0.0, SVG Export Plug-In . SVG Version: 6.00 Build 0)  -->
<svg version="1.1" id="Warstwa_1" xmlns="http://www.w3.org/2000/svg" xmlns:xlink="http://www.w3.org/1999/xlink" x="0px" y="0px"
	 viewBox="0 0 1365.5 228.9" style="enable-background:new 0 0 1365.5 228.9;" xml:space="preserve">
<style type="text/css">
	.st0{fill:#E6FAFF;stroke:#999999;stroke-miterlimit:10;}
</style>
<path class="st0" d="M4.3,15.2c12.4,6,35.3,11.4,52,29c17.9,18.9,76.8,59.1,103,59c28.1-0.1,69.3-9.4,76.5-13.5
	c14.6-8.4,27.1-16.8,46-17c26.8-0.2,40.2,16.5,71,35c30.9,18.5,66.4,39.9,102,35c45.8-6.3,65.3-26.1,116.5-33.5
	c7.1-1,79.2,23.5,155-20c33.5-19.2,128.7-31.8,153-32c36.7-0.2,177.3,32.4,224.5,27.5c57.5-5.9,143.3-2.5,262,43v100H0.8"/>
</svg>
