<?xml version="1.0" encoding="utf-8"?>
<!-- Generator: Adobe Illustrator 24.0.0, SVG Export Plug-In . SVG Version: 6.00 Build 0)  -->
<svg version="1.1" xmlns="http://www.w3.org/2000/svg" xmlns:xlink="http://www.w3.org/1999/xlink" x="0px" y="0px"
	 viewBox="0 0 1366 768" style="enable-background:new 0 0 1366 768;" xml:space="preserve">
<style type="text/css">
	.st0{fill:#F5FDFF;}
</style>
<g id="Warstwa_1">
	<g>
		
			<image style="overflow:visible;opacity:0.75;" width="1411" height="205" xlink:href="E060F44B.png"  transform="matrix(1 0 0 1 -15 575)">
		</image>
		<g>
			<path class="st0" d="M-1,697.5c47.4-69.3,87-69,114-84c54.5-30.3,66.1,43.5,154,60.5c44.4,8.6,66-8,149-16
				c67.4-6.5,73.1,54.3,121,50c75.8-6.9,74.9-85.5,124-80c25.9,2.9,7.8,32.4,119,77c9.4,3.8,51-2.7,66-4c25.1-2.1,28.5,19.6,53,18.5
				c14.9-0.7,25.7-40,44-36.5c26.6,5,30.5,41.2,58,37c46.4-7.1,65.8-52,114-57c32.7-3.4,21,22.4,64,15c29.5-5,54-34,99-24
				c66.1,14.7,62.5,38.1,77.5,52c7.3,6.7,16.5,22,9,61c-454.8,0.5-909.7,1-1364.5,1.5L-1,697.5z"/>
		</g>
	</g>
</g>
<g id="Warstwa_2">
</g>
</svg>
